<svg width="100" height="100" viewBox="0 0 100 100" fill="none" xmlns="http://www.w3.org/2000/svg">
<path d="M36.245 35.98L36.2559 20.1317C36.2559 18.3015 36.9417 16.5893 38.1957 15.3105C39.5887 13.904 41.5821 13.1006 43.6825 13.1006C45.3222 13.1006 46.8977 13.6112 48.1194 14.5199C49.5984 15.6257 50.5199 17.2944 50.713 19.1999C50.713 19.2428 51.5594 27.509 52.3203 34.9077C57.6466 31.7441 61.2369 25.8956 61.2369 19.1999C61.2369 9.1472 53.1776 1 43.2325 1C33.2874 1 25.228 9.1472 25.228 19.1999C25.2175 26.7391 29.7615 33.2171 36.245 35.98Z" fill="#18CFAB"/>
<path d="M36.9632 95.8349C36.9632 97.0245 37.9277 98.0002 39.1066 98.0002H70.7857C71.9645 98.0002 72.9289 97.0245 72.9289 95.8349V90.8704H36.9632V95.8349Z" fill="#18CFAB"/>
<path d="M75.2117 52.0245C77.2052 52.6735 78.5448 54.5475 78.5448 56.6603L78.5234 73.9291C78.5234 76.4971 77.8372 79.0098 76.5404 81.2089L72.9076 87.4168H36.9417C26.932 77.1675 21.8525 66.2383 21.0806 61.5472C20.5449 58.3287 22.7633 56.1745 25.228 56.1745C26.6319 56.1745 28.1218 56.8664 29.2363 58.4798C29.5899 59.0015 29.9757 59.5637 30.4045 60.1808C33.5705 64.8166 36.8201 64.9136 38.303 64.9579L38.3562 64.9595H38.3884C38.4315 64.9595 38.4851 64.9595 38.5277 64.9471H38.5493C39.0636 64.8728 39.4387 64.4386 39.4387 63.9186L39.4603 20.1198C39.4493 17.6616 41.5927 16.3407 43.6719 16.3407C45.5044 16.3407 47.2835 17.3684 47.5087 19.5365C47.5087 19.5803 50.2737 46.6081 50.2843 46.6936V46.706H50.2948C51.0559 46.0224 52.3203 45.6229 53.7671 45.6229C54.3032 45.6229 54.8604 45.6766 55.4283 45.7836C57.2608 46.1529 69.2639 50.0625 75.2117 52.0245Z" fill="#18CFAB"/>
</svg>
