<svg width="100" height="100" viewBox="0 0 100 100" fill="none" xmlns="http://www.w3.org/2000/svg">
<path fill-rule="evenodd" clip-rule="evenodd" d="M68 77.0014C68 78.6586 66.6582 79.9998 65 79.9998H35C33.3418 79.9998 31.9999 78.6586 31.9999 77.0014C31.9999 75.3426 33.3418 74.0005 35 74.0005H65C66.6582 74.0005 68 75.3426 68 77.0014ZM65 83.0007H35C33.3418 83.0007 31.9999 84.3415 31.9999 86.0007C31.9999 87.66 33.3418 89 35 89H65C66.6582 89 68 87.66 68 86.0007C68 84.3415 66.6582 83.0007 65 83.0007ZM44 98.0001H55.9999C59.3164 98.0001 61.9999 95.3169 61.9999 92.0004H38C38 95.3169 40.6836 98.0001 44 98.0001ZM80 32.0002C80 48.3123 70.1679 50.2107 68.3222 68C68.3222 69.6589 66.9804 71.0009 65.3223 71.0009H34.6778C33.0194 71.0009 31.6776 69.6589 31.6776 68H31.6718C29.8321 50.2107 20 48.3123 20 32.0002C20 15.4306 33.4296 2 50 2C66.5702 2 80 15.4306 80 32.0002ZM62.1464 23.0008C27.2715 31.25 44.1465 53.0009 44.1465 53.0009C44.1465 40.9999 52.959 38.1874 53.1464 38.5633C46.959 44.5634 44.1465 65.0003 44.1465 65.0003H50.1465C50.1465 65.0003 50.1465 58.9998 50.1465 53.0009C67.209 53.9378 62.1464 25.062 62.1464 23.0008Z" fill="#18CFAB"/>
</svg>
