<svg width="100" height="100" viewBox="0 0 100 100" fill="none" xmlns="http://www.w3.org/2000/svg">
<path d="M82.362 17.3653H20.1884V28.541H14.7103V12H87.8414V42.0845H82.362V17.3653Z" fill="white"/>
<path fill-rule="evenodd" clip-rule="evenodd" d="M39.797 88.0002H1V30.9781H39.797V88.0002ZM19.3483 83.3066C19.3483 84.3141 20.1844 85.1418 21.2169 85.1418C22.2505 85.1418 23.0906 84.3141 23.0878 83.3066C23.0878 82.2979 22.2505 81.4763 21.2169 81.4763C20.1844 81.4763 19.3483 82.2979 19.3483 83.3066ZM34.1906 36.473H6.61051V78.5456H34.1886L34.1906 36.473Z" fill="white"/>
<path d="M42.2976 53.8761H71.1106V59.2422H42.2976V53.8761Z" fill="white"/>
<path fill-rule="evenodd" clip-rule="evenodd" d="M73.9428 87.1093V44.1663H100V87.1093H73.9428ZM88.1791 46.5612C88.1791 46.2192 87.8982 45.9445 87.5502 45.9445C87.2023 45.9445 86.9195 46.2171 86.9195 46.5612C86.9195 46.8986 87.2023 47.18 87.5502 47.18C87.8982 47.18 88.1791 46.8986 88.1791 46.5612ZM91.2979 48.0044H83.8025V48.5934H91.2979V48.0044ZM85.8006 83.78C85.8006 84.5929 86.4761 85.2554 87.3039 85.2554C88.1322 85.2554 88.8076 84.5929 88.8076 83.78C88.8076 82.9663 88.1322 82.3087 87.3039 82.3087C86.4718 82.3087 85.8006 82.9708 85.8006 83.78ZM78.1239 80.2326C81.4789 80.2599 89.0518 80.2359 95.819 80.1979V50.703L78.1239 50.7071V80.2326Z" fill="white"/>
<path d="M42.2976 61.4376H71.1106V69.0552H42.2976V66.1155H61.6111V64.6904H42.2976V61.4376Z" fill="white"/>
</svg>
