<svg width="43" height="42" viewBox="0 0 43 42" fill="none" xmlns="http://www.w3.org/2000/svg">
<path d="M27.4086 16.4129L25.6183 14.6021C24.826 13.8032 23.5389 13.7983 22.745 14.5935L20.7584 16.5749C19.9632 17.3697 19.9598 18.6626 20.7498 19.4615L21.8852 18.3458C21.7702 17.9903 21.9116 17.5831 22.1928 17.3013L23.4566 16.0419C23.857 15.642 24.4993 15.6449 24.8943 16.0443L25.9693 17.1324C26.3646 17.5314 26.3629 18.1764 25.965 18.5767L24.7011 19.8377C24.4337 20.1044 23.9948 20.251 23.6543 20.1569L22.5423 21.2734C23.3336 22.0748 24.6193 22.0776 25.4155 21.2828L27.3996 19.3023C28.1974 18.507 28.1999 17.213 27.4086 16.4129Z" fill="#1FDAB5"/>
<path d="M20.1351 23.6718C20.2294 24.0191 20.0784 24.4682 19.805 24.7423L18.6247 25.9227C18.2195 26.3262 17.5649 26.325 17.162 25.9166L16.0653 24.8111C15.6633 24.4043 15.6659 23.7422 16.0705 23.3395L17.2519 22.1595C17.5397 21.872 17.9534 21.7283 18.3144 21.85L19.4531 20.6944C18.6471 19.8809 17.3351 19.8768 16.5258 20.6863L14.6102 22.5997C13.7999 23.4104 13.7961 24.7276 14.6017 25.5416L16.4249 27.3882C17.2302 28.1993 18.541 28.2058 19.3522 27.3963L21.2678 25.4825C22.0772 24.671 22.081 23.3562 21.2767 22.5406L20.1351 23.6718Z" fill="#1FDAB5"/>
<path d="M18.8901 23.1457C19.1584 23.4246 19.5974 23.4254 19.8709 23.1506L23.1437 19.8186C23.4165 19.5405 23.4182 19.0917 23.1471 18.814C22.8779 18.5372 22.4398 18.5363 22.168 18.8112L18.8944 22.142C18.6226 22.4185 18.6205 22.866 18.8901 23.1457Z" fill="#1FDAB5"/>
<path fill-rule="evenodd" clip-rule="evenodd" d="M21 0.5C9.67816 0.5 0.5 9.67816 0.5 21C0.5 32.3218 9.67816 41.5 21 41.5H22C33.3218 41.5 42.5 32.3218 42.5 21C42.5 9.67816 33.3218 0.5 22 0.5H21ZM1.5 21C1.5 10.2304 10.2304 1.5 21 1.5H22C32.7696 1.5 41.5 10.2304 41.5 21C41.5 31.7696 32.7696 40.5 22 40.5H21C10.2304 40.5 1.5 31.7696 1.5 21Z" fill="#1FDAB5"/>
</svg>
